<svg width="97" height="1021" viewBox="0 0 97 1021" fill="none" xmlns="http://www.w3.org/2000/svg">
<g clip-path="url(#clip0)">
<path d="M8.5 31.4731C7.25401 31.4731 6.05906 30.9741 5.17801 30.0858C4.29697 29.1976 3.802 27.9928 3.802 26.7366C3.802 25.4804 4.29697 24.2756 5.17801 23.3873C6.05906 22.499 7.25401 22 8.5 22C9.74599 22 10.9409 22.499 11.822 23.3873C12.703 24.2756 13.198 25.4804 13.198 26.7366C13.198 27.9928 12.703 29.1976 11.822 30.0858C10.9409 30.9741 9.74599 31.4731 8.5 31.4731ZM8.5 23.8946C8.12983 23.8946 7.76328 23.9681 7.42129 24.111C7.0793 24.2538 6.76856 24.4631 6.50681 24.727C6.24506 24.9909 6.03743 25.3042 5.89577 25.649C5.75411 25.9938 5.6812 26.3634 5.6812 26.7366C5.6812 27.1098 5.75411 27.4793 5.89577 27.8241C6.03743 28.1689 6.24506 28.4822 6.50681 28.7461C6.76856 29.01 7.0793 29.2194 7.42129 29.3622C7.76328 29.505 8.12983 29.5785 8.5 29.5785C9.24759 29.5785 9.96457 29.2791 10.4932 28.7461C11.0218 28.2132 11.3188 27.4903 11.3188 26.7366C11.3188 25.9828 11.0218 25.26 10.4932 24.727C9.96457 24.194 9.24759 23.8946 8.5 23.8946ZM16.9564 38.7675C17.002 38.9129 17.012 39.0673 16.9857 39.2176C16.9593 39.3678 16.8974 39.5094 16.8052 39.6303C16.7129 39.7512 16.5931 39.8478 16.4558 39.912C16.3185 39.9762 16.1679 40.0061 16.0168 39.999H0.983198C0.832058 40.0061 0.681458 39.9762 0.544204 39.912C0.40695 39.8478 0.287102 39.7512 0.194851 39.6303C0.1026 39.5094 0.0406744 39.3678 0.0143407 39.2176C-0.011993 39.0673 -0.00195612 38.9129 0.0435977 38.7675C0.654336 37.0043 1.79948 35.4793 3.31704 34.4083C4.8346 33.3373 6.64775 32.7744 8.5 32.7994C10.3523 32.7744 12.1654 33.3373 13.683 34.4083C15.2005 35.4793 16.3457 37.0043 16.9564 38.7675ZM2.3926 38.1044H14.6074C13.9711 37.0455 13.0748 36.17 12.0049 35.5624C10.9351 34.9548 9.72791 34.6355 8.5 34.6355C7.27209 34.6355 6.06492 34.9548 4.99508 35.5624C3.92525 36.17 3.0289 37.0455 2.3926 38.1044Z" fill="#F8F8F8"/>
<path d="M58.5 31.4731C57.254 31.4731 56.0591 30.9741 55.178 30.0858C54.297 29.1976 53.802 27.9928 53.802 26.7366C53.802 25.4804 54.297 24.2756 55.178 23.3873C56.0591 22.499 57.254 22 58.5 22C59.746 22 60.9409 22.499 61.822 23.3873C62.703 24.2756 63.198 25.4804 63.198 26.7366C63.198 27.9928 62.703 29.1976 61.822 30.0858C60.9409 30.9741 59.746 31.4731 58.5 31.4731ZM58.5 23.8946C58.1298 23.8946 57.7633 23.9681 57.4213 24.111C57.0793 24.2538 56.7686 24.4631 56.5068 24.727C56.2451 24.9909 56.0374 25.3042 55.8958 25.649C55.7541 25.9938 55.6812 26.3634 55.6812 26.7366C55.6812 27.1098 55.7541 27.4793 55.8958 27.8241C56.0374 28.1689 56.2451 28.4822 56.5068 28.7461C56.7686 29.01 57.0793 29.2194 57.4213 29.3622C57.7633 29.505 58.1298 29.5785 58.5 29.5785C59.2476 29.5785 59.9646 29.2791 60.4932 28.7461C61.0218 28.2132 61.3188 27.4903 61.3188 26.7366C61.3188 25.9828 61.0218 25.26 60.4932 24.727C59.9646 24.194 59.2476 23.8946 58.5 23.8946ZM66.9564 38.7675C67.002 38.9129 67.012 39.0673 66.9857 39.2176C66.9593 39.3678 66.8974 39.5094 66.8052 39.6303C66.7129 39.7512 66.5931 39.8478 66.4558 39.912C66.3185 39.9762 66.1679 40.0061 66.0168 39.999H50.9832C50.8321 40.0061 50.6815 39.9762 50.5442 39.912C50.4069 39.8478 50.2871 39.7512 50.1949 39.6303C50.1026 39.5094 50.0407 39.3678 50.0143 39.2176C49.988 39.0673 49.998 38.9129 50.0436 38.7675C50.6543 37.0043 51.7995 35.4793 53.317 34.4083C54.8346 33.3373 56.6477 32.7744 58.5 32.7994C60.3523 32.7744 62.1654 33.3373 63.683 34.4083C65.2005 35.4793 66.3457 37.0043 66.9564 38.7675ZM52.3926 38.1044H64.6074C63.9711 37.0455 63.0748 36.17 62.0049 35.5624C60.9351 34.9548 59.7279 34.6355 58.5 34.6355C57.2721 34.6355 56.0649 34.9548 54.9951 35.5624C53.9252 36.17 53.0289 37.0455 52.3926 38.1044Z" fill="#EF0A0F"/>
<path d="M14.5 71.3979L5.5 66.2079L14.5 71.3979ZM1.27 68.9579L10 74.0079L18.73 68.9579H1.27ZM10 84.0779V73.9979V84.0779ZM19 77.9979V69.9979C18.9996 69.6472 18.9071 69.3028 18.7315 68.9991C18.556 68.6955 18.3037 68.4433 18 68.2679L11 64.2679C10.696 64.0924 10.3511 64 10 64C9.64893 64 9.30404 64.0924 9 64.2679L2 68.2679C1.69626 68.4433 1.44398 68.6955 1.26846 68.9991C1.09294 69.3028 1.00036 69.6472 1 69.9979V77.9979C1.00036 78.3487 1.09294 78.6931 1.26846 78.9968C1.44398 79.3004 1.69626 79.5526 2 79.7279L9 83.7279C9.30404 83.9035 9.64893 83.9959 10 83.9959C10.3511 83.9959 10.696 83.9035 11 83.7279L18 79.7279C18.3037 79.5526 18.556 79.3004 18.7315 78.9968C18.9071 78.6931 18.9996 78.3487 19 77.9979Z" stroke="#F8F8F8" strokeWidth="1.5" strokeLinecap="round" strokeLinejoin="round"/>
<path d="M64.5 71.3979L55.5 66.2079L64.5 71.3979ZM51.27 68.9579L60 74.0079L68.73 68.9579H51.27ZM60 84.0779V73.9979V84.0779ZM69 77.9979V69.9979C68.9996 69.6472 68.9071 69.3028 68.7315 68.9991C68.556 68.6955 68.3037 68.4433 68 68.2679L61 64.2679C60.696 64.0924 60.3511 64 60 64C59.6489 64 59.304 64.0924 59 64.2679L52 68.2679C51.6963 68.4433 51.444 68.6955 51.2685 68.9991C51.0929 69.3028 51.0004 69.6472 51 69.9979V77.9979C51.0004 78.3487 51.0929 78.6931 51.2685 78.9968C51.444 79.3004 51.6963 79.5526 52 79.7279L59 83.7279C59.304 83.9035 59.6489 83.9959 60 83.9959C60.3511 83.9959 60.696 83.9035 61 83.7279L68 79.7279C68.3037 79.5526 68.556 79.3004 68.7315 78.9968C68.9071 78.6931 68.9996 78.3487 69 77.9979Z" stroke="#EF0A0F" strokeWidth="1.5" strokeLinecap="round" strokeLinejoin="round"/>
<path d="M4.92188 119.326H3.30098C3.5748 115.594 6.69892 112.641 10.5 112.641C13.5078 112.641 16.2296 114.535 17.2727 117.355C17.4299 117.78 17.9017 117.997 18.3267 117.84C18.7516 117.682 18.9686 117.211 18.8114 116.786C18.1897 115.105 17.0852 113.667 15.6174 112.627C14.1158 111.562 12.3462 111 10.5 111C8.1336 111 5.90879 111.922 4.23548 113.595C2.58398 115.246 1.66544 117.435 1.64173 119.767C0.661377 120.335 0 121.395 0 122.607V125.396C0 127.206 1.47197 128.678 3.28125 128.678H4.92188C5.37493 128.678 5.74219 128.31 5.74219 127.857V120.146C5.74219 119.693 5.37493 119.326 4.92188 119.326ZM4.10156 127.037H3.28125C2.37661 127.037 1.64062 126.301 1.64062 125.396V122.607C1.64062 121.703 2.37661 120.967 3.28125 120.967H4.10156V127.037Z" fill="#F8F8F8"/>
<path d="M17.7188 119.326H16.0781C15.6251 119.326 15.2578 119.693 15.2578 120.146V128.719C15.2578 129.171 14.8898 129.539 14.4375 129.539H11.9355V129.565C11.6557 129.06 11.1179 128.719 10.5 128.719C9.59392 128.719 8.85938 129.453 8.85938 130.359C8.85938 131.265 9.59392 132 10.5 132C11.1179 132 11.6557 131.658 11.9355 131.154V131.18H14.4375C15.7945 131.18 16.8984 130.076 16.8984 128.719V128.678H17.7188C19.528 128.678 21 127.206 21 125.396V122.607C21 120.798 19.528 119.326 17.7188 119.326ZM19.3594 125.396C19.3594 126.301 18.6234 127.037 17.7188 127.037H16.8984V120.967H17.7188C18.6234 120.967 19.3594 121.703 19.3594 122.607V125.396Z" fill="#F8F8F8"/>
<path d="M54.9219 119.326H53.301C53.5748 115.594 56.6989 112.641 60.5 112.641C63.5078 112.641 66.2296 114.535 67.2727 117.355C67.4299 117.78 67.9017 117.997 68.3267 117.84C68.7516 117.682 68.9686 117.211 68.8114 116.786C68.1897 115.105 67.0852 113.667 65.6174 112.627C64.1158 111.562 62.3462 111 60.5 111C58.1336 111 55.9088 111.922 54.2355 113.595C52.584 115.246 51.6654 117.435 51.6417 119.767C50.6614 120.335 50 121.395 50 122.607V125.396C50 127.206 51.472 128.678 53.2812 128.678H54.9219C55.3749 128.678 55.7422 128.31 55.7422 127.857V120.146C55.7422 119.693 55.3749 119.326 54.9219 119.326ZM54.1016 127.037H53.2812C52.3766 127.037 51.6406 126.301 51.6406 125.396V122.607C51.6406 121.703 52.3766 120.967 53.2812 120.967H54.1016V127.037Z" fill="#EF0A0F"/>
<path d="M67.7188 119.326H66.0781C65.6251 119.326 65.2578 119.693 65.2578 120.146V128.719C65.2578 129.171 64.8898 129.539 64.4375 129.539H61.9355V129.565C61.6557 129.06 61.1179 128.719 60.5 128.719C59.5939 128.719 58.8594 129.453 58.8594 130.359C58.8594 131.265 59.5939 132 60.5 132C61.1179 132 61.6557 131.658 61.9355 131.154V131.18H64.4375C65.7945 131.18 66.8984 130.076 66.8984 128.719V128.678H67.7188C69.528 128.678 71 127.206 71 125.396V122.607C71 120.798 69.528 119.326 67.7188 119.326ZM69.3594 125.396C69.3594 126.301 68.6234 127.037 67.7188 127.037H66.8984V120.967H67.7188C68.6234 120.967 69.3594 121.703 69.3594 122.607V125.396Z" fill="#EF0A0F"/>
<path d="M19.2629 160.929H16.2162V162.376H18.5258V176.553H1.47422V162.376H3.78379V160.929H0.737109C0.329961 160.929 0 161.253 0 161.652V177.277C0 177.676 0.329961 178 0.737109 178H19.2629C19.6703 178 20 177.676 20 177.277V161.652C20 161.253 19.67 160.929 19.2629 160.929Z" fill="#EF0A0F"/>
<path d="M23.2629 493.929H20.2162V495.376H22.5258V509.553H5.47422V495.376H7.78379V493.929H4.73711C4.32996 493.929 4 494.253 4 494.652V510.277C4 510.676 4.32996 511 4.73711 511H23.2629C23.6703 511 24 510.676 24 510.277V494.652C24 494.253 23.67 493.929 23.2629 493.929Z" fill="#EF0A0F"/>
<path d="M23.2629 679.929H20.2162V681.376H22.5258V695.553H5.47422V681.376H7.78379V679.929H4.73711C4.32996 679.929 4 680.253 4 680.652V696.277C4 696.676 4.32996 697 4.73711 697H23.2629C23.6703 697 24 696.676 24 696.277V680.652C24 680.253 23.67 679.929 23.2629 679.929Z" fill="#EF0A0F"/>
<path d="M13.8527 160.93L6.16211 160.977L6.17139 162.424L13.862 162.377L13.8527 160.93Z" fill="#EF0A0F"/>
<path d="M17.8527 493.93L10.1621 493.977L10.1714 495.424L17.862 495.377L17.8527 493.93Z" fill="#EF0A0F"/>
<path d="M17.8527 679.93L10.1621 679.977L10.1714 681.424L17.862 681.377L17.8527 679.93Z" fill="#EF0A0F"/>
<path d="M19.1889 165.775H0.810547V167.222H19.1889V165.775Z" fill="#EF0A0F"/>
<path d="M23.1889 498.775H4.81055V500.222H23.1889V498.775Z" fill="#EF0A0F"/>
<path d="M23.1889 684.775H4.81055V686.222H23.1889V684.775Z" fill="#EF0A0F"/>
<path d="M6.16726 159H3.78399C3.37688 159 3.04688 159.324 3.04688 159.723V163.581C3.04688 163.981 3.37684 164.305 3.78399 164.305H6.16726C6.57437 164.305 6.90438 163.981 6.90438 163.581V159.723C6.90438 159.324 6.57441 159 6.16726 159ZM5.43015 162.858H4.52106V160.447H5.43015V162.858Z" fill="#EF0A0F"/>
<path d="M10.1673 492H7.78399C7.37688 492 7.04688 492.324 7.04688 492.723V496.581C7.04688 496.981 7.37684 497.305 7.78399 497.305H10.1673C10.5744 497.305 10.9044 496.981 10.9044 496.581V492.723C10.9044 492.324 10.5744 492 10.1673 492ZM9.43015 495.858H8.52106V493.447H9.43015V495.858Z" fill="#EF0A0F"/>
<path d="M10.1673 678H7.78399C7.37688 678 7.04688 678.324 7.04688 678.723V682.581C7.04688 682.981 7.37684 683.305 7.78399 683.305H10.1673C10.5744 683.305 10.9044 682.981 10.9044 682.581V678.723C10.9044 678.324 10.5744 678 10.1673 678ZM9.43015 681.858H8.52106V679.447H9.43015V681.858Z" fill="#EF0A0F"/>
<path d="M16.2405 159H13.8572C13.4501 159 13.1201 159.324 13.1201 159.723V163.581C13.1201 163.981 13.4501 164.305 13.8572 164.305H16.2405C16.6476 164.305 16.9776 163.981 16.9776 163.581V159.723C16.9776 159.324 16.6476 159 16.2405 159ZM15.5034 162.858H14.5943V160.447H15.5034V162.858Z" fill="#EF0A0F"/>
<path d="M20.2405 492H17.8572C17.4501 492 17.1201 492.324 17.1201 492.723V496.581C17.1201 496.981 17.4501 497.305 17.8572 497.305H20.2405C20.6476 497.305 20.9776 496.981 20.9776 496.581V492.723C20.9776 492.324 20.6476 492 20.2405 492ZM19.5034 495.858H18.5943V493.447H19.5034V495.858Z" fill="#EF0A0F"/>
<path d="M20.2405 678H17.8572C17.4501 678 17.1201 678.324 17.1201 678.723V682.581C17.1201 682.981 17.4501 683.305 17.8572 683.305H20.2405C20.6476 683.305 20.9776 682.981 20.9776 682.581V678.723C20.9776 678.324 20.6476 678 20.2405 678ZM19.5034 681.858H18.5943V679.447H19.5034V681.858Z" fill="#EF0A0F"/>
<path d="M14.8567 168.434C14.5753 168.145 14.1085 168.135 13.8146 168.411L8.73361 173.179L6.19678 170.689C5.90881 170.407 5.44197 170.406 5.15428 170.689C4.86654 170.971 4.86654 171.429 5.15428 171.712L8.20096 174.702C8.34494 174.843 8.53338 174.914 8.72232 174.914C8.9056 174.914 9.08916 174.847 9.23142 174.713L14.8333 169.457C15.1277 169.181 15.1382 168.723 14.8567 168.434Z" fill="#EF0A0F"/>
<path d="M18.8567 501.434C18.5753 501.145 18.1085 501.135 17.8146 501.411L12.7336 506.179L10.1968 503.689C9.90881 503.407 9.44197 503.406 9.15428 503.689C8.86654 503.971 8.86654 504.429 9.15428 504.712L12.201 507.702C12.3449 507.843 12.5334 507.914 12.7223 507.914C12.9056 507.914 13.0892 507.847 13.2314 507.713L18.8333 502.457C19.1277 502.181 19.1382 501.723 18.8567 501.434Z" fill="#EF0A0F"/>
<path d="M18.8567 687.434C18.5753 687.145 18.1085 687.135 17.8146 687.411L12.7336 692.179L10.1968 689.689C9.90881 689.407 9.44197 689.406 9.15428 689.689C8.86654 689.971 8.86654 690.429 9.15428 690.712L12.201 693.702C12.3449 693.843 12.5334 693.914 12.7223 693.914C12.9056 693.914 13.0892 693.847 13.2314 693.713L18.8333 688.457C19.1277 688.181 19.1382 687.723 18.8567 687.434Z" fill="#EF0A0F"/>
<path d="M1 210L4.42857 213L9 208" stroke="#EF0A0F" strokeWidth="1.5"/>
<path d="M16 238L2 252L16 238ZM6 239.5C6 240.881 4.88071 242 3.5 242C2.11929 242 1 240.881 1 239.5C1 238.119 2.11929 237 3.5 237C4.88071 237 6 238.119 6 239.5ZM17 250.5C17 251.881 15.8807 253 14.5 253C13.1193 253 12 251.881 12 250.5C12 249.119 13.1193 248 14.5 248C15.8807 248 17 249.119 17 250.5Z" stroke="white" strokeWidth="2" strokeLinecap="round" strokeLinejoin="round"/>
<path d="M17.2954 281.825C15.5025 279.394 12.6611 278 9.50028 278C6.33944 278 3.49803 279.394 1.70517 281.825C-0.0788863 284.244 -0.490831 287.305 0.601021 290.01C0.893066 290.749 1.3573 291.467 1.97753 292.139L8.87513 299.729C9.03113 299.901 9.2597 300 9.50028 300C9.74086 300 9.96942 299.901 10.1254 299.729L17.0211 292.142C17.6441 291.465 18.1077 290.748 18.3973 290.015C19.4914 287.305 19.0794 284.244 17.2954 281.825ZM16.8596 289.477C16.6363 290.042 16.2717 290.601 15.7765 291.139C15.7752 291.14 15.7738 291.141 15.7727 291.143L9.50028 298.044L3.22401 291.138C2.72913 290.601 2.36452 290.042 2.13899 289.472C1.23602 287.234 1.57871 284.703 3.05595 282.7C4.53782 280.691 6.88683 279.538 9.50028 279.538C12.1137 279.538 14.4624 280.691 15.9443 282.7C17.4218 284.703 17.7648 287.234 16.8596 289.477Z" fill="#EF0A0F"/>
<path d="M22.2954 550.825C20.5025 548.394 17.6611 547 14.5003 547C11.3394 547 8.49803 548.394 6.70517 550.825C4.92111 553.244 4.50917 556.305 5.60102 559.01C5.89307 559.749 6.3573 560.467 6.97753 561.139L13.8751 568.729C14.0311 568.901 14.2597 569 14.5003 569C14.7409 569 14.9694 568.901 15.1254 568.729L22.0211 561.142C22.6441 560.465 23.1077 559.748 23.3973 559.015C24.4914 556.305 24.0794 553.244 22.2954 550.825ZM21.8596 558.477C21.6363 559.042 21.2717 559.601 20.7765 560.139C20.7752 560.14 20.7738 560.141 20.7727 560.143L14.5003 567.044L8.22401 560.138C7.72913 559.601 7.36452 559.042 7.13899 558.472C6.23602 556.234 6.57871 553.703 8.05595 551.7C9.53782 549.691 11.8868 548.538 14.5003 548.538C17.1137 548.538 19.4624 549.691 20.9443 551.7C22.4218 553.703 22.7648 556.234 21.8596 558.477Z" fill="#EF0A0F"/>
<path d="M22.2954 736.825C20.5025 734.394 17.6611 733 14.5003 733C11.3394 733 8.49803 734.394 6.70517 736.825C4.92111 739.244 4.50917 742.305 5.60102 745.01C5.89307 745.749 6.3573 746.467 6.97753 747.139L13.8751 754.729C14.0311 754.901 14.2597 755 14.5003 755C14.7409 755 14.9694 754.901 15.1254 754.729L22.0211 747.142C22.6441 746.465 23.1077 745.748 23.3973 745.015C24.4914 742.305 24.0794 739.244 22.2954 736.825ZM21.8596 744.477C21.6363 745.042 21.2717 745.601 20.7765 746.139C20.7752 746.14 20.7738 746.141 20.7727 746.143L14.5003 753.044L8.22401 746.138C7.72913 745.601 7.36452 745.042 7.13899 744.472C6.23602 742.234 6.57871 739.703 8.05595 737.7C9.53782 735.691 11.8868 734.538 14.5003 734.538C17.1137 734.538 19.4624 735.691 20.9443 737.7C22.4218 739.703 22.7648 742.234 21.8596 744.477Z" fill="#EF0A0F"/>
<path d="M9.50075 282.564C6.96532 282.564 4.90234 284.496 4.90234 286.872C4.90234 289.247 6.96505 291.18 9.50075 291.18C12.0365 291.18 14.0992 289.247 14.0992 286.872C14.0992 284.497 12.0362 282.564 9.50075 282.564ZM9.50075 289.641C7.87077 289.641 6.54462 288.399 6.54462 286.872C6.54462 285.345 7.87077 284.103 9.50075 284.103C11.1308 284.103 12.4569 285.345 12.4569 286.872C12.4569 288.399 11.1308 289.641 9.50075 289.641Z" fill="#EF0A0F"/>
<path d="M14.5008 551.564C11.9653 551.564 9.90234 553.496 9.90234 555.872C9.90234 558.247 11.9651 560.18 14.5008 560.18C17.0365 560.18 19.0992 558.247 19.0992 555.872C19.0992 553.497 17.0362 551.564 14.5008 551.564ZM14.5008 558.641C12.8708 558.641 11.5446 557.399 11.5446 555.872C11.5446 554.345 12.8708 553.103 14.5008 553.103C16.1308 553.103 17.4569 554.345 17.4569 555.872C17.4569 557.399 16.1308 558.641 14.5008 558.641Z" fill="#EF0A0F"/>
<path d="M14.5008 737.564C11.9653 737.564 9.90234 739.496 9.90234 741.872C9.90234 744.247 11.9651 746.18 14.5008 746.18C17.0365 746.18 19.0992 744.247 19.0992 741.872C19.0992 739.497 17.0362 737.564 14.5008 737.564ZM14.5008 744.641C12.8708 744.641 11.5446 743.399 11.5446 741.872C11.5446 740.345 12.8708 739.103 14.5008 739.103C16.1308 739.103 17.4569 740.345 17.4569 741.872C17.4569 743.399 16.1308 744.641 14.5008 744.641Z" fill="#EF0A0F"/>
<path d="M17.7415 350.828H13.5174V346.603C13.5174 346.136 13.1389 345.759 12.6726 345.759C12.2062 345.759 11.8278 346.136 11.8278 346.603V350.828H7.60362C7.13727 350.828 6.75879 351.205 6.75879 351.672C6.75879 352.14 7.13727 352.517 7.60362 352.517H11.8278V356.741C11.8278 357.209 12.2062 357.586 12.6726 357.586C13.1389 357.586 13.5174 357.209 13.5174 356.741V352.517H17.7415C18.2079 352.517 18.5864 352.14 18.5864 351.672C18.5864 351.205 18.2079 350.828 17.7415 350.828Z" fill="#EF0A0F"/>
<path d="M41.3968 350.828H31.2589C30.7925 350.828 30.4141 351.205 30.4141 351.672C30.4141 352.14 30.7925 352.517 31.2589 352.517H41.3968C41.8632 352.517 42.2416 352.14 42.2416 351.672C42.2416 351.205 41.8632 350.828 41.3968 350.828Z" fill="#EF0A0F"/>
<path d="M25.3448 339H23.6552H0V362.655V364.345V388H23.6552H25.3448H49V364.345V362.655V339H25.3448ZM1.68966 340.69H23.6552V362.655H1.68966V340.69ZM1.68966 386.31V364.345H23.6552V386.31H1.68966ZM47.3103 386.31H25.3448V364.345H47.3103V386.31ZM25.3448 362.655V340.69H47.3103V362.655H25.3448Z" fill="#EF0A0F"/>
<path d="M31.2589 378.707H41.3968C41.8632 378.707 42.2416 378.329 42.2416 377.862C42.2416 377.395 41.8632 377.017 41.3968 377.017H31.2589C30.7925 377.017 30.4141 377.395 30.4141 377.862C30.4141 378.329 30.7925 378.707 31.2589 378.707Z" fill="#EF0A0F"/>
<path d="M31.2589 373.638H41.3968C41.8632 373.638 42.2416 373.26 42.2416 372.793C42.2416 372.326 41.8632 371.948 41.3968 371.948H31.2589C30.7925 371.948 30.4141 372.326 30.4141 372.793C30.4141 373.26 30.7925 373.638 31.2589 373.638Z" fill="#EF0A0F"/>
<path d="M17.4941 370.506C17.1638 370.176 16.6299 370.176 16.2995 370.506L12.6727 374.133L9.04585 370.506C8.71552 370.176 8.18159 370.176 7.85126 370.506C7.52093 370.836 7.52093 371.37 7.85126 371.701L11.4781 375.328L7.85126 378.954C7.52093 379.285 7.52093 379.819 7.85126 380.149C8.016 380.314 8.23228 380.397 8.44855 380.397C8.66483 380.397 8.88111 380.314 9.04585 380.149L12.6727 376.522L16.2995 380.149C16.4643 380.314 16.6806 380.397 16.8968 380.397C17.1131 380.397 17.3294 380.314 17.4941 380.149C17.8245 379.819 17.8245 379.285 17.4941 378.954L13.8673 375.328L17.4941 371.701C17.8245 371.37 17.8245 370.836 17.4941 370.506Z" fill="#EF0A0F"/>
<path d="M27.9866 451.007L27.0896 447.666C27.0693 447.591 27.027 447.523 26.968 447.472C26.9089 447.42 26.8359 447.387 26.758 447.377C26.68 447.367 26.6008 447.38 26.5302 447.414C26.4597 447.448 26.4009 447.502 26.3615 447.57L25.3227 449.345L22.726 447.838V439.088C22.7255 439.067 22.7233 439.045 22.7196 439.025C22.7226 439.009 22.7247 438.993 22.726 438.977C22.726 438.908 22.7079 438.84 22.6734 438.781C22.6389 438.721 22.5892 438.671 22.5293 438.637L14.8974 434.207V431.232H16.9675C17.046 431.232 17.1228 431.209 17.1881 431.165C17.2534 431.122 17.3043 431.061 17.3343 430.989C17.3644 430.917 17.3722 430.838 17.3568 430.761C17.3414 430.685 17.3035 430.615 17.2479 430.56L14.7809 428.115C14.7064 428.041 14.6053 428 14.5 428C14.3946 428 14.2936 428.041 14.219 428.115L11.752 430.56C11.6964 430.615 11.6585 430.685 11.6431 430.761C11.6277 430.838 11.6356 430.917 11.6657 430.989C11.6957 431.061 11.7467 431.122 11.8121 431.166C11.8774 431.209 11.9543 431.232 12.0329 431.232H14.1025V434.207L6.47065 438.637C6.41078 438.671 6.36112 438.721 6.32662 438.781C6.29211 438.84 6.27396 438.908 6.27397 438.977C6.27515 438.993 6.27735 439.009 6.28056 439.025C6.27662 439.045 6.27442 439.067 6.27397 439.088V447.837L3.67747 449.345L2.63847 447.569C2.59899 447.502 2.54026 447.447 2.46969 447.413C2.39912 447.379 2.31988 447.366 2.24197 447.376C2.16406 447.387 2.09098 447.42 2.03196 447.471C1.97294 447.522 1.93063 447.59 1.91037 447.665L1.0133 451.007C0.986269 451.108 1.00079 451.215 1.05368 451.306C1.10657 451.396 1.19349 451.462 1.29536 451.489L4.66788 452.377C4.74383 452.397 4.82406 452.395 4.89842 452.369C4.97277 452.344 5.03792 452.298 5.08563 452.236C5.13335 452.174 5.16148 452.1 5.16647 452.022C5.17146 451.944 5.1531 451.867 5.11369 451.799L4.07582 450.025L6.67118 448.519L14.2987 452.946C14.3008 452.947 14.3031 452.948 14.3053 452.949C14.3079 452.95 14.3106 452.951 14.3131 452.952C14.3348 452.963 14.3577 452.973 14.3812 452.98C14.3838 452.981 14.3864 452.982 14.3891 452.983C14.3943 452.985 14.3996 452.986 14.405 452.988C14.4668 453.004 14.5318 453.004 14.5935 452.988C14.6017 452.986 14.6094 452.983 14.6162 452.98C14.6398 452.973 14.6626 452.963 14.6844 452.952C14.6865 452.951 14.6888 452.95 14.6911 452.949C14.6937 452.948 14.6963 452.947 14.6987 452.946L22.3285 448.519L24.9239 450.027L23.8862 451.8C23.8512 451.86 23.8327 451.927 23.8326 451.997C23.8325 452.066 23.8508 452.134 23.8857 452.194C23.9205 452.254 23.9707 452.304 24.0312 452.338C24.0916 452.373 24.1602 452.391 24.2301 452.391C24.2646 452.391 24.2989 452.386 24.3323 452.378L27.7048 451.489C27.8067 451.462 27.8936 451.396 27.9464 451.306C27.9993 451.215 28.0137 451.108 27.9866 451.007ZM14.5 428.95L16.0082 430.445H12.9918L14.5 428.95ZM1.88379 450.828L2.43203 448.786L3.94478 451.371L1.88379 450.828ZM14.5 434.889L21.5423 438.977L14.5 443.063L7.45787 438.977L14.5 434.889ZM7.06884 439.663L14.1025 443.745V451.919L7.06884 447.837V439.663ZM14.8974 451.919V443.745L21.9311 439.663V447.837L14.8974 451.919ZM25.0551 451.371L26.5679 448.786L27.1164 450.828L25.0551 451.371Z" fill="#EF0A0F"/>
<path d="M27.9866 637.007L27.0896 633.666C27.0693 633.591 27.027 633.523 26.968 633.472C26.9089 633.42 26.8359 633.387 26.758 633.377C26.68 633.367 26.6008 633.38 26.5302 633.414C26.4597 633.448 26.4009 633.502 26.3615 633.57L25.3227 635.345L22.726 633.838V625.088C22.7255 625.067 22.7233 625.045 22.7196 625.025C22.7226 625.009 22.7247 624.993 22.726 624.977C22.726 624.908 22.7079 624.84 22.6734 624.781C22.6389 624.721 22.5892 624.671 22.5293 624.637L14.8974 620.207V617.232H16.9675C17.046 617.232 17.1228 617.209 17.1881 617.165C17.2534 617.122 17.3043 617.061 17.3343 616.989C17.3644 616.917 17.3722 616.838 17.3568 616.761C17.3414 616.685 17.3035 616.615 17.2479 616.56L14.7809 614.115C14.7064 614.041 14.6053 614 14.5 614C14.3946 614 14.2936 614.041 14.219 614.115L11.752 616.56C11.6964 616.615 11.6585 616.685 11.6431 616.761C11.6277 616.838 11.6356 616.917 11.6657 616.989C11.6957 617.061 11.7467 617.122 11.8121 617.166C11.8774 617.209 11.9543 617.232 12.0329 617.232H14.1025V620.207L6.47065 624.637C6.41078 624.671 6.36112 624.721 6.32662 624.781C6.29211 624.84 6.27396 624.908 6.27397 624.977C6.27515 624.993 6.27735 625.009 6.28056 625.025C6.27662 625.045 6.27442 625.067 6.27397 625.088V633.837L3.67747 635.345L2.63847 633.569C2.59899 633.502 2.54026 633.447 2.46969 633.413C2.39912 633.379 2.31988 633.366 2.24197 633.376C2.16406 633.387 2.09098 633.42 2.03196 633.471C1.97294 633.522 1.93063 633.59 1.91037 633.665L1.0133 637.007C0.986269 637.108 1.00079 637.215 1.05368 637.306C1.10657 637.396 1.19349 637.462 1.29536 637.489L4.66788 638.377C4.74383 638.397 4.82406 638.395 4.89842 638.369C4.97277 638.344 5.03792 638.298 5.08563 638.236C5.13335 638.174 5.16148 638.1 5.16647 638.022C5.17146 637.944 5.1531 637.867 5.11369 637.799L4.07582 636.025L6.67118 634.519L14.2987 638.946C14.3008 638.947 14.3031 638.948 14.3053 638.949C14.3079 638.95 14.3106 638.951 14.3131 638.952C14.3348 638.963 14.3577 638.973 14.3812 638.98C14.3838 638.981 14.3864 638.982 14.3891 638.983C14.3943 638.985 14.3996 638.986 14.405 638.988C14.4668 639.004 14.5318 639.004 14.5935 638.988C14.6017 638.986 14.6094 638.983 14.6162 638.98C14.6398 638.973 14.6626 638.963 14.6844 638.952C14.6865 638.951 14.6888 638.95 14.6911 638.949C14.6937 638.948 14.6963 638.947 14.6987 638.946L22.3285 634.519L24.9239 636.027L23.8862 637.8C23.8512 637.86 23.8327 637.927 23.8326 637.997C23.8325 638.066 23.8508 638.134 23.8857 638.194C23.9205 638.254 23.9707 638.304 24.0312 638.338C24.0916 638.373 24.1602 638.391 24.2301 638.391C24.2646 638.391 24.2989 638.386 24.3323 638.378L27.7048 637.489C27.8067 637.462 27.8936 637.396 27.9464 637.306C27.9993 637.215 28.0137 637.108 27.9866 637.007ZM14.5 614.95L16.0082 616.445H12.9918L14.5 614.95ZM1.88379 636.828L2.43203 634.786L3.94478 637.371L1.88379 636.828ZM14.5 620.889L21.5423 624.977L14.5 629.063L7.45787 624.977L14.5 620.889ZM7.06884 625.663L14.1025 629.745V637.919L7.06884 633.837V625.663ZM14.8974 637.919V629.745L21.9311 625.663V633.837L14.8974 637.919ZM25.0551 637.371L26.5679 634.786L27.1164 636.828L25.0551 637.371Z" fill="#EF0A0F"/>
<path d="M27.9866 451.007L27.0896 447.666C27.0693 447.591 27.027 447.523 26.968 447.472C26.9089 447.42 26.8359 447.387 26.758 447.377C26.68 447.367 26.6008 447.38 26.5302 447.414C26.4597 447.448 26.4009 447.502 26.3615 447.57L25.3227 449.345L22.726 447.838V439.088C22.7255 439.067 22.7233 439.045 22.7196 439.025C22.7226 439.009 22.7247 438.993 22.726 438.977C22.726 438.908 22.7079 438.84 22.6734 438.781C22.6389 438.721 22.5892 438.671 22.5293 438.637L14.8974 434.207V431.232H16.9675C17.046 431.232 17.1228 431.209 17.1881 431.165C17.2534 431.122 17.3043 431.061 17.3343 430.989C17.3644 430.917 17.3722 430.838 17.3568 430.761C17.3414 430.685 17.3035 430.615 17.2479 430.56L14.7809 428.115C14.7064 428.041 14.6053 428 14.5 428C14.3946 428 14.2936 428.041 14.219 428.115L11.752 430.56C11.6964 430.615 11.6585 430.685 11.6431 430.761C11.6277 430.838 11.6356 430.917 11.6657 430.989C11.6957 431.061 11.7467 431.122 11.8121 431.166C11.8774 431.209 11.9543 431.232 12.0329 431.232H14.1025V434.207L6.47065 438.637C6.41078 438.671 6.36112 438.721 6.32662 438.781C6.29211 438.84 6.27396 438.908 6.27397 438.977C6.27515 438.993 6.27735 439.009 6.28056 439.025C6.27662 439.045 6.27442 439.067 6.27397 439.088V447.837L3.67747 449.345L2.63847 447.569C2.59899 447.502 2.54026 447.447 2.46969 447.413C2.39912 447.379 2.31988 447.366 2.24197 447.376C2.16406 447.387 2.09098 447.42 2.03196 447.471C1.97294 447.522 1.93063 447.59 1.91037 447.665L1.0133 451.007C0.986269 451.108 1.00079 451.215 1.05368 451.306C1.10657 451.396 1.19349 451.462 1.29536 451.489L4.66788 452.377C4.74383 452.397 4.82406 452.395 4.89842 452.369C4.97277 452.344 5.03792 452.298 5.08563 452.236C5.13335 452.174 5.16148 452.1 5.16647 452.022C5.17146 451.944 5.1531 451.867 5.11369 451.799L4.07582 450.025L6.67118 448.519L14.2987 452.946C14.3008 452.947 14.3031 452.948 14.3053 452.949C14.3079 452.95 14.3106 452.951 14.3131 452.952C14.3348 452.963 14.3577 452.973 14.3812 452.98C14.3838 452.981 14.3864 452.982 14.3891 452.983C14.3943 452.985 14.3996 452.986 14.405 452.988C14.4668 453.004 14.5318 453.004 14.5935 452.988C14.6017 452.986 14.6094 452.983 14.6162 452.98C14.6398 452.973 14.6626 452.963 14.6844 452.952C14.6865 452.951 14.6888 452.95 14.6911 452.949C14.6937 452.948 14.6963 452.947 14.6987 452.946L22.3285 448.519L24.9239 450.027L23.8862 451.8C23.8512 451.86 23.8327 451.927 23.8326 451.997C23.8325 452.066 23.8508 452.134 23.8857 452.194C23.9205 452.254 23.9707 452.304 24.0312 452.338C24.0916 452.373 24.1602 452.391 24.2301 452.391C24.2646 452.391 24.2989 452.386 24.3323 452.378L27.7048 451.489C27.8067 451.462 27.8936 451.396 27.9464 451.306C27.9993 451.215 28.0137 451.108 27.9866 451.007ZM14.5 428.95L16.0082 430.445H12.9918L14.5 428.95ZM1.88379 450.828L2.43203 448.786L3.94478 451.371L1.88379 450.828ZM14.5 434.889L21.5423 438.977L14.5 443.063L7.45787 438.977L14.5 434.889ZM7.06884 439.663L14.1025 443.745V451.919L7.06884 447.837V439.663ZM14.8974 451.919V443.745L21.9311 439.663V447.837L14.8974 451.919ZM25.0551 451.371L26.5679 448.786L27.1164 450.828L25.0551 451.371Z" stroke="#EF0A0F"/>
<path d="M27.9866 637.007L27.0896 633.666C27.0693 633.591 27.027 633.523 26.968 633.472C26.9089 633.42 26.8359 633.387 26.758 633.377C26.68 633.367 26.6008 633.38 26.5302 633.414C26.4597 633.448 26.4009 633.502 26.3615 633.57L25.3227 635.345L22.726 633.838V625.088C22.7255 625.067 22.7233 625.045 22.7196 625.025C22.7226 625.009 22.7247 624.993 22.726 624.977C22.726 624.908 22.7079 624.84 22.6734 624.781C22.6389 624.721 22.5892 624.671 22.5293 624.637L14.8974 620.207V617.232H16.9675C17.046 617.232 17.1228 617.209 17.1881 617.165C17.2534 617.122 17.3043 617.061 17.3343 616.989C17.3644 616.917 17.3722 616.838 17.3568 616.761C17.3414 616.685 17.3035 616.615 17.2479 616.56L14.7809 614.115C14.7064 614.041 14.6053 614 14.5 614C14.3946 614 14.2936 614.041 14.219 614.115L11.752 616.56C11.6964 616.615 11.6585 616.685 11.6431 616.761C11.6277 616.838 11.6356 616.917 11.6657 616.989C11.6957 617.061 11.7467 617.122 11.8121 617.166C11.8774 617.209 11.9543 617.232 12.0329 617.232H14.1025V620.207L6.47065 624.637C6.41078 624.671 6.36112 624.721 6.32662 624.781C6.29211 624.84 6.27396 624.908 6.27397 624.977C6.27515 624.993 6.27735 625.009 6.28056 625.025C6.27662 625.045 6.27442 625.067 6.27397 625.088V633.837L3.67747 635.345L2.63847 633.569C2.59899 633.502 2.54026 633.447 2.46969 633.413C2.39912 633.379 2.31988 633.366 2.24197 633.376C2.16406 633.387 2.09098 633.42 2.03196 633.471C1.97294 633.522 1.93063 633.59 1.91037 633.665L1.0133 637.007C0.986269 637.108 1.00079 637.215 1.05368 637.306C1.10657 637.396 1.19349 637.462 1.29536 637.489L4.66788 638.377C4.74383 638.397 4.82406 638.395 4.89842 638.369C4.97277 638.344 5.03792 638.298 5.08563 638.236C5.13335 638.174 5.16148 638.1 5.16647 638.022C5.17146 637.944 5.1531 637.867 5.11369 637.799L4.07582 636.025L6.67118 634.519L14.2987 638.946C14.3008 638.947 14.3031 638.948 14.3053 638.949C14.3079 638.95 14.3106 638.951 14.3131 638.952C14.3348 638.963 14.3577 638.973 14.3812 638.98C14.3838 638.981 14.3864 638.982 14.3891 638.983C14.3943 638.985 14.3996 638.986 14.405 638.988C14.4668 639.004 14.5318 639.004 14.5935 638.988C14.6017 638.986 14.6094 638.983 14.6162 638.98C14.6398 638.973 14.6626 638.963 14.6844 638.952C14.6865 638.951 14.6888 638.95 14.6911 638.949C14.6937 638.948 14.6963 638.947 14.6987 638.946L22.3285 634.519L24.9239 636.027L23.8862 637.8C23.8512 637.86 23.8327 637.927 23.8326 637.997C23.8325 638.066 23.8508 638.134 23.8857 638.194C23.9205 638.254 23.9707 638.304 24.0312 638.338C24.0916 638.373 24.1602 638.391 24.2301 638.391C24.2646 638.391 24.2989 638.386 24.3323 638.378L27.7048 637.489C27.8067 637.462 27.8936 637.396 27.9464 637.306C27.9993 637.215 28.0137 637.108 27.9866 637.007ZM14.5 614.95L16.0082 616.445H12.9918L14.5 614.95ZM1.88379 636.828L2.43203 634.786L3.94478 637.371L1.88379 636.828ZM14.5 620.889L21.5423 624.977L14.5 629.063L7.45787 624.977L14.5 620.889ZM7.06884 625.663L14.1025 629.745V637.919L7.06884 633.837V625.663ZM14.8974 637.919V629.745L21.9311 625.663V633.837L14.8974 637.919ZM25.0551 637.371L26.5679 634.786L27.1164 636.828L25.0551 637.371Z" stroke="#EF0A0F"/>
<path opacity="0.3" d="M0 1L4 5L8 1" fill="#0E0E0E"/>
<line x1="36.5" y1="418" x2="36.5" y2="463" stroke="black"/>
<line x1="36.5" y1="604" x2="36.5" y2="649" stroke="white"/>
<line x1="36.5" y1="477" x2="36.5" y2="522" stroke="black"/>
<line x1="36.5" y1="663" x2="36.5" y2="708" stroke="white"/>
<line x1="36.5" y1="534" x2="36.5" y2="579" stroke="black"/>
<line x1="36.5" y1="720" x2="36.5" y2="765" stroke="white"/>
</g>
<defs>
<clipPath id="clip0">
<rect width="97" height="1021" fill="white"/>
</clipPath>
</defs>
</svg>
